<svg xmlns="http://www.w3.org/2000/svg" viewBox="0 0 328.2 102"><mask id="m" maskUnits="userSpaceOnUse" x="0" y="0" width="328.2" height="102"><g fill="#fff"><g><g transform="translate(-9870 1438)"><g transform="translate(9870 -1438)"><path d="M136,15.6c-8.9,0.1-16.9,5.8-19.8,14.2c-0.2,0.4-0.7,2.1-0.7,2.1L103,86.4h28.8 c9.9-0.2,18.4-7.1,20.6-16.8l0,0l12.4-53.8H136L136,15.6z"></path><path d="M88.2,0c-9.5,0-17.8,6.3-20.3,15.4c-0.2,0.7-0.3,1.3-0.5,2L47.9,102h28.8 c9.7,0,18.1-6.7,20.4-16.1l0,0L116.9,0H88.2z"></path><path d="M33,15.6c-9.3,0.1-17.4,6.2-20.1,15.1c-0.1,0.2-0.1,0.4-0.2,0.6l-0.5,1.9L0,86.4h29.5 c8.7-0.1,16.5-5.8,19.3-14l1.1-5.1l11.9-51.5L33,15.6L33,15.6z"></path><path d="M27.6,33.3h-0.5c-2.1,0-4.2,0.8-5.8,2.1c-1.5,1.1-2.6,2.7-3.3,4.5l0,0l-6.6,28.7h0.4 c2.1,0,4.2-0.8,5.8-2.2c1.7-1.3,2.9-3.2,3.4-5.3l1.4-6.2h13.1c2.1-0.1,4.2-0.8,5.8-2.2c1.7-1.3,2.9-3.2,3.4-5.3l0.1-0.4H24.2 l1.3-5.9h17.8c2.1,0,4.2-0.8,5.8-2.1c1.7-1.4,2.8-3.2,3.4-5.3l0.1-0.4L27.6,33.3z" fill="#000"></path><path d="M100.5,35c-1.2-1.1-2.7-1.8-4.4-1.7H70.9l-8.1,35.4h0.4c2.1,0,4.2-0.8,5.8-2.2 c1.7-1.3,2.9-3.2,3.4-5.3l1.4-6.3h17.4c2,0.2,4.1-0.4,5.7-1.6c1.8-1.5,3-3.5,3.6-5.8l1.5-6.5c0.1-0.5,0.2-1.1,0.2-1.6 C102.2,37.7,101.6,36.2,100.5,35z M92.7,47h-17l1.4-5.9h17L92.7,47z" fill="#000"></path><path d="M151.7,35c-1.2-1.2-2.7-1.8-4.4-1.7h-26.6l-0.1,0.2c-0.1,0.5-0.2,1-0.2,1.5 c-0.1,1.6,0.5,3.1,1.6,4.3c1.2,1.1,2.7,1.8,4.4,1.7h5.6l-6.3,27.4h0.4c2.1,0,4.2-0.8,5.8-2.2c1.7-1.3,2.9-3.2,3.4-5.3l4.7-20H153 l0.1-0.2c0.1-0.5,0.2-1.1,0.2-1.6C153.4,37.6,152.8,36.1,151.7,35z" fill="#000"></path></g><g transform="translate(9919.18 -1414.733)"><path d="M107.6,57c0-3.4,2.7-6.1,6.1-6.1c3.4,0,6.1,2.7,6.1,6.1c0,3.4-2.7,6.1-6.1,6.1 C110.3,63.1,107.6,60.4,107.6,57 M118.3,57c-0.2-2.5-2.3-4.4-4.9-4.3c-2.5,0.2-4.4,2.3-4.3,4.9c0.2,2.4,2.2,4.3,4.6,4.3 C116.4,61.8,118.4,59.7,118.3,57C118.3,57,118.3,57,118.3,57 M111.3,53.5h2.6c1.6,0,2.6,0.6,2.6,2c0,1.2-0.7,1.7-1.8,1.8l1.8,3 h-1.3l-1.8-2.9h-0.8v3h-1.1L111.3,53.5z M112.7,56.5h1.1c0.7,0,1.4-0.1,1.4-1c0-0.8-0.7-0.9-1.4-0.9h-1.1V56.5z"></path></g><g transform="translate(9928.95 -1426.661)"><path d="M142.5,52.7c-1.9,1.5-4.3,2.2-6.7,2.1c-2.4,0.1-4.7-0.4-6.8-1.4l1.4-3.7 c1.6,0.9,3.4,1.3,5.2,1.3c1.3,0.1,2.6-0.3,3.7-1.1c0.9-0.7,1.4-1.8,1.4-2.9c0-1.7-1.4-3.1-4.4-4.5c-1.7-0.7-3.3-1.7-4.7-2.8 c-1.5-1.3-2.3-3.2-2.3-5.2c-0.1-2.1,0.8-4.2,2.3-5.6c1.7-1.4,3.9-2.2,6.2-2c2.1-0.1,4.2,0.4,6.1,1.4l-1.3,3.5 c-1.4-0.8-3-1.2-4.7-1.2c-1.2-0.1-2.3,0.3-3.3,1c-0.8,0.7-1.2,1.7-1.2,2.7c0,1.6,1.5,3.1,4.6,4.6c1.6,0.7,3.2,1.6,4.6,2.7 c1.5,1.3,2.3,3.2,2.2,5.2C145,49,144.1,51.2,142.5,52.7z"></path><path d="M162.6,51.8c-3.1,3.6-8.6,4.1-12.2,1c-0.4-0.3-0.7-0.6-1-1c-3.1-4.5-3.1-10.5,0-15 c3.1-3.6,8.6-4.1,12.2-1c0.4,0.3,0.7,0.6,1,1c1.6,2.2,2.5,4.8,2.3,7.5C165,47,164.2,49.7,162.6,51.8z M159.5,38.9 c-1.3-2-3.9-2.5-5.9-1.2c-0.5,0.3-0.9,0.7-1.2,1.2c-1.6,3.3-1.6,7.2,0,10.6c1.2,2,3.7,2.6,5.7,1.5c0.6-0.4,1.1-0.9,1.5-1.5 C161.2,46.2,161.2,42.3,159.5,38.9z"></path><path d="M177.2,28.2c-2.6,0-4.1,1.1-4.1,3.5v2.6h4.2v3h-4.2v17.2h-4.1V37.2h-2.6v-3h2.6v-2.6 c-0.1-2,0.7-3.9,2.1-5.2c1.5-1.2,3.3-1.7,5.2-1.6c0.4,0,0.9,0,1.3,0.1v3.3L177.2,28.2z"></path><path d="M189.2,54.3c-0.8,0.3-1.7,0.5-2.6,0.4c-3.8,0-5.6-1.9-5.6-5.9V37.3h-2.7v-3h2.7v-4.8l4.1-1.2 v5.9h4.1v3h-4.1v11.3c0,1.7,0.9,2.6,2.7,2.6c0.5,0,1-0.1,1.4-0.3v3.6L189.2,54.3z"></path><path d="M213.4,54.5h-4.3l-3.7-12.9c-0.2-0.9-0.4-1.8-0.6-2.9h-0.1c-0.2,1-0.4,2-0.6,2.9l-3.7,12.9h-4.3 l-6-20.2h4.1l3.5,13.4c0.2,0.9,0.4,2,0.6,3.1h0.1c0.2-1.1,0.4-2.1,0.7-3.1l3.7-13.4h3.9l3.7,13.4c0.2,0.9,0.5,2,0.7,3.1h0.2 c0.1-1.1,0.3-2.1,0.6-3.1l3.5-13.4h4.1L213.4,54.5z"></path><path d="M236.6,53.5c-2.3,1-4.8,1.5-7.3,1.4c-5.8,0-8.7-2.1-8.7-6.4c-0.1-2.5,1.4-4.7,3.8-5.5 c2.7-1,5.5-1.5,8.3-1.5v-1.3c0-2.3-1.4-3.5-4.3-3.5c-1.9,0-3.8,0.4-5.6,1.2l-1-2.8c2.2-1,4.7-1.4,7.1-1.4c5.2,0,7.8,2.3,7.8,6.9 L236.6,53.5L236.6,53.5z M232.8,44.2c-1.9,0-3.8,0.3-5.7,0.8c-1.6,0.4-2.7,1.8-2.6,3.4c0,2.3,1.6,3.5,4.8,3.5 c1.2,0.1,2.3-0.1,3.5-0.5L232.8,44.2L232.8,44.2z"></path><path d="M249.6,37.3c-0.7-0.1-1.3-0.2-2-0.2c-1.1,0-2.1,0.1-3.1,0.5v16.8h-4.1V35.2 c2.5-1,5.1-1.5,7.8-1.4c0.8,0,1.6,0,2.3,0.1L249.6,37.3z"></path><path d="M269.2,44.2l-13.4,1.9c0,3.1,2.6,5.6,5.6,5.5c0.2,0,0.4,0,0.5,0c1.9,0.1,3.9-0.4,5.6-1.2l1.2,3 c-2.2,1-4.7,1.5-7.1,1.4c-2.8,0.2-5.5-0.9-7.4-2.8c-1.8-2.1-2.8-4.9-2.6-7.7c-0.1-2.8,0.7-5.5,2.4-7.6c1.7-2,4.1-3,6.7-2.9 c2.3-0.1,4.6,0.8,6.2,2.4c1.6,1.8,2.4,4.1,2.2,6.5L269.2,44.2z M265.3,42c0-3.6-1.5-5.3-4.5-5.3c-1.5-0.1-2.9,0.6-3.8,1.7 c-1.1,1.4-1.6,3.1-1.5,4.9L265.3,42z"></path></g></g></g></g></mask><rect x="0" y="0" width="328.2" height="102" fill="#fff" mask="url(#m)"/></svg>
